# xmcd
#
# Track frame offsets:
#	150
#	17110
#	31570
#	47162
#	63975
#	80925
#	93570
#	104980
#	121047
#	137757
#	153100
#	171527
#
# Disc length: 2492
#
# Revision: 2
# Processed by: cddbd v1.5.1PL0 Copyright (c) Steve Scherf et al.
# Submitted via: audiograbber 1.82.01
# Normalized: r1:DSETVAR1
#
DISCID=a009ba0c
DTITLE=Various Artist - Trucker Highlights
DYEAR=1992
DGENRE=Country
TTITLE0=Tom Astor - Meine Antwort ist die große Autobahn
TTITLE1=Dagmar - Trucker
TTITLE2=Jonny Hill - Westwärts
TTITLE3=Linda Feller - Meine Tränen wirst du nie mehr seh'n
TTITLE4=Truck Riders - Die Straße war sein Zuhause
TTITLE5=Ralf Paulsen - Ich fahr 'nen Supertruck
TTITLE6=Jonny Hill - Lichter auf den Hügeln
TTITLE7=Hanna and Daana - Er ist so wie Du
TTITLE8=Greyhounds - Hallo Taxi
TTITLE9=Frank Baum and Country Green - Trucker, Du und ich
TTITLE10=Truck Riders - Auf und davon
TTITLE11=Greyhounds - Mein Diesel
EXTD=
EXTT0=
EXTT1=
EXTT2=
EXTT3=
EXTT4=
EXTT5=
EXTT6=
EXTT7=
EXTT8=
EXTT9=
EXTT10=
EXTT11=
PLAYORDER=
